<?xml version="1.0" encoding="UTF-8"?>
<svg version="1.1" xmlns="http://www.w3.org/2000/svg" width="466" height="466">
<path d="M0 0 C153.78 0 307.56 0 466 0 C466 153.78 466 307.56 466 466 C312.22 466 158.44 466 0 466 C0 312.22 0 158.44 0 0 Z " fill="#FDFDFD" transform="translate(0,0)"/>
<path d="M0 0 C3.50715689 2.93622438 4.77783728 4.59005392 5.49609375 9.1484375 C5.73696435 15.64464465 5.73696435 15.64464465 5 19 C1.70423138 22.53118066 -0.89665284 23.45441925 -5.625 23.875 C-11.52658357 24.66382553 -15.75998077 26.6922782 -20.8203125 29.7578125 C-23 31 -23 31 -25 31 C-22.13046455 37.42287509 -19.16391618 43.76169965 -15.91796875 50.00390625 C-15 52 -15 52 -15 54 C-6.06867426 50.63177205 2.77253776 47.27502686 11.1875 42.75 C14.72718444 41.01499719 17.01748849 40.1059668 21 41 C27.15635166 44.47170794 30.79474821 48.31389833 33.22265625 54.9375 C33.97877623 57.19520207 33.97877623 57.19520207 35.8125 59.625 C37.55280377 63.10560754 37.00705882 65.30745101 36 69 C34.5 71.4375 34.5 71.4375 32 73 C28.87802106 73.61856031 26.11445457 73.68709486 23 73 C22.175 72.154375 21.35 71.30875 20.5 70.4375 C18.34856451 67.86620485 18.34856451 67.86620485 16.12109375 67.71484375 C9.28015181 68.21659441 3.16272409 71.17411467 -3 74 C-1.64153511 82.20985303 3.00601873 94.00601873 9 100 C11.67874816 100.0735836 14.33711592 100.08813638 17.015625 100.0703125 C18.67579172 100.07889993 20.33594954 100.08937704 21.99609375 100.1015625 C24.62127937 100.1182428 27.24448978 100.12505341 29.86962891 100.09960938 C32.3986984 100.07860936 34.92422391 100.10191103 37.453125 100.1328125 C38.23351135 100.11542023 39.01389771 100.09802795 39.81793213 100.08010864 C42.88028848 100.14767477 45.09078485 100.35398298 47.62382507 102.15376282 C52.37171216 107.58493737 51.63354963 114.33725825 51.48828125 121.15234375 C51.48120651 122.40761368 51.47413177 123.66288361 51.46684265 124.95619202 C51.44367379 128.27277289 51.39886117 131.58759269 51.34332275 134.90368652 C51.29191683 138.29566331 51.26928351 141.687823 51.24414062 145.08007812 C51.18912474 151.72053382 51.10553551 158.36016537 51 165 C51.96039185 164.97643433 51.96039185 164.97643433 52.94018555 164.95239258 C55.85586631 164.88982885 58.77140555 164.85094192 61.6875 164.8125 C62.69490234 164.78736328 63.70230469 164.76222656 64.74023438 164.73632812 C74.29458366 164.64173061 74.29458366 164.64173061 78 168 C80.54350578 171.71806619 80.30257123 175.65527994 80.30639648 179.99389648 C80.31472 180.79599548 80.32304352 181.59809448 80.33161926 182.42449951 C80.35569584 185.07341375 80.36448773 187.72208173 80.37109375 190.37109375 C80.38006069 192.21427992 80.38918254 194.05746535 80.39845276 195.90065002 C80.4149381 199.76329314 80.42264225 203.62584961 80.42553711 207.48852539 C80.43092559 212.43637294 80.46862656 217.3834059 80.51428127 222.33102322 C80.54402997 226.13746615 80.55126016 229.94371222 80.55226326 233.75026131 C80.55646863 235.57432862 80.56891566 237.39839635 80.58978081 239.22234917 C80.61665538 241.77441189 80.6118829 244.32457675 80.59936523 246.87670898 C80.62161667 248.00448509 80.62161667 248.00448509 80.64431763 249.15504456 C80.58807653 253.18415769 80.1558392 254.81455118 77.52503967 257.94520569 C76.27514503 258.96232887 76.27514503 258.96232887 75 260 C74.67 260.33 74.34 260.66 74 261 C72.29227642 261.08713831 70.58101351 261.10700007 68.87109375 261.09765625 C67.31938477 261.09282227 67.31938477 261.09282227 65.73632812 261.08789062 C64.1034082 261.07532227 64.1034082 261.07532227 62.4375 261.0625 C60.7987793 261.05573242 60.7987793 261.05573242 59.12695312 261.04882812 C56.41791505 261.03699826 53.70898401 261.02051543 51 261 C51.0199855 262.06329529 51.0199855 262.06329529 51.04037476 263.14807129 C51.16101692 269.85596372 51.2521578 276.56354977 51.31087303 283.27228546 C51.34207578 286.72073461 51.38433854 290.16828118 51.45263672 293.61621094 C51.53080743 297.58777749 51.55950968 301.55898935 51.5859375 305.53125 C51.61690521 306.75863892 51.64787292 307.98602783 51.67977905 309.25061035 C51.68246188 316.12127755 51.05635479 320.35645423 46.48721313 325.62585449 C42.98614594 328.86074776 38.96272581 328.15125027 34.47041321 328.15390015 C33.57682277 328.1582824 32.68323234 328.16266465 31.76256341 328.1671797 C28.74966585 328.18059988 25.73679757 328.18675397 22.72387695 328.19287109 C20.57060615 328.20077001 18.41733667 328.20903883 16.2640686 328.21765137 C9.17215241 328.24391266 2.08023022 328.25919076 -5.01171875 328.2734375 C-7.45377926 328.27879695 -9.89583973 328.28417445 -12.33790016 328.28956985 C-22.50244351 328.31121143 -32.66698525 328.3299447 -42.83154583 328.34119225 C-57.38774833 328.35740507 -71.94368273 328.39050356 -86.49978417 328.44759309 C-96.73776615 328.48637197 -106.97567669 328.5058348 -117.21373016 328.51111281 C-123.32490215 328.51475755 -129.43578847 328.52668438 -135.54688072 328.55921555 C-141.3064693 328.58943293 -147.06560146 328.59555922 -152.82525253 328.58383179 C-154.92980849 328.58361214 -157.03438645 328.59182583 -159.13886833 328.60948563 C-177.8740147 328.75803196 -191.86396597 326.11014626 -206.171875 313.01171875 C-210.43179454 308.62796434 -213.47279247 303.77373186 -216.375 298.4375 C-216.87616333 297.51795532 -216.87616333 297.51795532 -217.38745117 296.57983398 C-220.94142767 289.70881276 -222.24836899 283.10044504 -222.26069641 275.38996887 C-222.26452196 274.66795609 -222.26834751 273.9459433 -222.27228898 273.20205134 C-222.28252765 270.80625559 -222.27864449 268.4107036 -222.2746582 266.01489258 C-222.27900956 264.28785482 -222.28419412 262.56081899 -222.29014587 260.83378601 C-222.30349675 256.16049746 -222.30411926 251.48728996 -222.30158257 246.81398606 C-222.30051091 242.90959866 -222.30540087 239.00522752 -222.310188 235.10084361 C-222.32126812 225.89249331 -222.321728 216.68418381 -222.31567383 207.47583008 C-222.30962485 197.97698638 -222.32197188 188.47829047 -222.3432439 178.97947198 C-222.36084885 170.81793168 -222.36686328 162.65643849 -222.36360615 154.4948799 C-222.3617925 149.6227492 -222.36443831 144.7507241 -222.37832069 139.87861061 C-222.39087758 135.30094393 -222.38897529 130.72350846 -222.37590981 126.14584541 C-222.37354038 124.46604078 -222.37629181 122.78621996 -222.38453293 121.10643387 C-222.39497064 118.81371315 -222.38692454 116.5217727 -222.3742218 114.2290802 C-222.37438954 112.94619519 -222.37455729 111.66331018 -222.37473011 110.34154987 C-221.97129685 106.74404777 -221.15441277 104.87454908 -219 102 C-216.984375 100.55859375 -216.984375 100.55859375 -214.75 99.4375 C-213.94949219 99.025 -213.14898437 98.6125 -212.32421875 98.1875 C-211.17373047 97.5996875 -211.17373047 97.5996875 -210 97 C-208.850427 96.31877156 -207.7042453 95.63176792 -206.5625 94.9375 C-202.98499995 92.86455605 -199.20684265 91.44912494 -195.33203125 90.02734375 C-192.98121251 89.10986845 -192.98121251 89.10986845 -191.19921875 87.56640625 C-188.70065155 85.78678734 -186.13580638 84.88564708 -183.26123047 83.86181641 C-179.05949626 82.26042127 -175.07775141 80.20277089 -171.0625 78.1875 C-170.22009766 77.77435547 -169.37769531 77.36121094 -168.50976562 76.93554688 C-164.22977386 74.79719841 -160.23455831 72.54038737 -156.30859375 69.80078125 C-152.63548982 67.27408323 -149.35423019 66.07336837 -145 65 C-142.72372232 63.97302821 -140.47324273 62.88723476 -138.25 61.75 C-137.64438232 61.4420752 -137.03876465 61.13415039 -136.41479492 60.81689453 C-131.78208915 58.44661629 -127.22974058 55.9388694 -122.6796875 53.4140625 C-118.94123526 51.44129324 -115.09616425 49.74870771 -111.21484375 48.078125 C-108.86644785 47.0839823 -108.86644785 47.0839823 -107 45 C-104.46843473 43.90526907 -101.89720123 42.9617493 -99.3125 42 C-96.86423873 41.10981497 -96.86423873 41.10981497 -95 39 C-93.0546875 38.3671875 -93.0546875 38.3671875 -90.875 37.875 C-89.59625 37.58625 -88.3175 37.2975 -87 37 C-87 36.34 -87 35.68 -87 35 C-85.64455078 34.51080078 -85.64455078 34.51080078 -84.26171875 34.01171875 C-83.08222656 33.57472656 -81.90273437 33.13773438 -80.6875 32.6875 C-79.51574219 32.25824219 -78.34398437 31.82898438 -77.13671875 31.38671875 C-74.23914217 30.10572288 -73.10003914 29.20682079 -71 27 C-68.73046875 25.97265625 -68.73046875 25.97265625 -66.1875 25.0625 C-62.03108804 23.48572163 -58.65666723 21.55116318 -55 19 C-53.34795544 18.29788106 -51.68076231 17.63028587 -50 17 C-47.99370747 16.01268531 -45.99474209 15.01044742 -44 14 C-41.68811577 12.83211359 -39.37559234 11.66549183 -37.0625 10.5 C-35.89847656 9.9121875 -34.73445312 9.324375 -33.53515625 8.71875 C-30.06444262 7.03133122 -26.54816745 5.51596069 -23 4 C-20.42668242 2.72622621 -17.87975341 1.40995059 -15.33203125 0.0859375 C-9.80566924 -2.48747731 -5.75229909 -1.91743303 0 0 Z " fill="#282A27" transform="translate(307,98)"/>
<path d="M0 0 C76.56 0 153.12 0 232 0 C232 13.86 232 27.72 232 42 C227.18510986 42.00616333 227.18510986 42.00616333 222.27294922 42.01245117 C211.66772641 42.02964799 201.0627448 42.07414872 190.45767021 42.13209057 C184.02772227 42.16638216 177.59801247 42.19147401 171.16796875 42.19555664 C164.96265687 42.19983479 158.75788243 42.2282586 152.55273819 42.27343178 C150.18530533 42.28642204 147.8178082 42.2907091 145.45034409 42.28615379 C142.13411159 42.281259 138.8194566 42.30729317 135.50341797 42.34057617 C134.5244606 42.33195053 133.54550323 42.32332489 132.53688049 42.31443787 C128.31149876 42.38553416 124.92750734 42.54900173 121.3918457 45.01806641 C118.35928084 48.79878982 118.15378847 51.71335975 118.22705078 56.37036133 C118.21642105 57.20014496 118.20579132 58.02992859 118.19483948 58.88485718 C118.16681386 61.61786763 118.18084015 64.34894318 118.1953125 67.08203125 C118.18406126 68.98062322 118.17018014 70.87920128 118.15377808 72.77775574 C118.11772772 77.76737248 118.11736812 82.75637664 118.12445068 87.74609375 C118.12536332 92.8406064 118.09250901 97.93488913 118.0625 103.02929688 C118.00862618 113.0195954 117.99245735 123.00957227 118 133 C118.99 133.33 119.98 133.66 121 134 C121 134.66 121 135.32 121 136 C125.92208749 138.59061482 130.78742668 138.30670286 136.20629883 138.31884766 C137.23115387 138.32889328 138.25600891 138.3389389 139.31192017 138.34928894 C142.69361825 138.3801373 146.07523709 138.39716089 149.45703125 138.4140625 C151.80401797 138.43277279 154.15099796 138.4523461 156.49797058 138.4727478 C162.67105133 138.52408953 168.8441539 138.56370448 175.01733398 138.60089111 C181.3182516 138.64091785 187.61907831 138.69201629 193.91992188 138.7421875 C206.27989043 138.83897108 218.63989645 138.9223449 231 139 C231 153.85 231 168.7 231 184 C204.01833022 184.0903001 177.03678282 184.16398201 150.05500031 184.20724869 C137.52684621 184.22787227 124.99879268 184.25598916 112.47070312 184.30175781 C101.55098894 184.34163159 90.63134759 184.36743429 79.71156263 184.37635398 C73.92981417 184.38156776 68.14827408 184.39381815 62.36659241 184.42292023 C56.92310466 184.45009766 51.47991085 184.45844018 46.03636169 184.45243073 C44.04013471 184.45352991 42.04389775 184.46146977 40.04772949 184.4768219 C37.31763435 184.49678617 34.58864231 184.49191573 31.85852051 184.48101807 C30.67949874 184.49849512 30.67949874 184.49849512 29.47665834 184.51632524 C24.05502875 184.45801276 19.41039958 183.30461307 15 180 C14.67 179.01 14.34 178.02 14 177 C12.67203709 176.64587656 11.33783393 176.31478446 10 176 C5.11576121 171.89723941 1.82014383 166.06000829 0 160 C-0.02621676 158.33353954 -0.02928361 156.66640939 0 155 C0.64026123 154.99589111 1.28052246 154.99178223 1.94018555 154.98754883 C4.85687905 154.95453962 7.77150384 154.88388974 10.6875 154.8125 C11.69490234 154.80669922 12.70230469 154.80089844 13.74023438 154.79492188 C20.03287426 154.74591253 20.03287426 154.74591253 25.14453125 151.51171875 C25.75683594 150.68285156 26.36914062 149.85398437 27 149 C27.33 148.67 27.66 148.34 28 148 C28.16017882 143.83535074 27.98248196 140.05273808 27 136 C18.43845808 133.14615269 9.01683386 134.37570141 0 134 C0 107.27 0 80.54 0 53 C7.92 52.67 15.84 52.34 24 52 C27.41940245 48.58059755 27.905848 47.29459006 28.25 42.5625 C27.98492337 38.78515803 27.72815699 37.54000823 25 35 C20.17074228 32.38415207 15.04472761 32.5573921 9.6875 32.375 C4.8921875 32.189375 4.8921875 32.189375 0 32 C0 21.44 0 10.88 0 0 Z " fill="#F3F1EF" transform="translate(106,220)"/>
<path d="M0 0 C30.36 0 60.72 0 92 0 C92 17.49 92 34.98 92 53 C61.64 53 31.28 53 0 53 C0 35.51 0 18.02 0 0 Z " fill="#C0D78E" transform="translate(245,284)"/>
<path d="M0 0 C1.10675619 2.1862225 2.21044378 4.37390948 3.3125 6.5625 C3.7755957 7.47612305 3.7755957 7.47612305 4.24804688 8.40820312 C4.55419922 9.01728516 4.86035156 9.62636719 5.17578125 10.25390625 C5.45333252 10.80377197 5.73088379 11.3536377 6.0168457 11.92016602 C6.84778863 13.67800132 7.62029655 15.46328056 8.37915039 17.25341797 C10.03227145 21.13811582 11.87967091 24.91152 13.7578125 28.69140625 C14.47302181 30.14500248 15.18785441 31.59878412 15.90234375 33.05273438 C17.01569039 35.31460409 18.1313224 37.57522002 19.25341797 39.83276367 C20.34538078 42.03219335 21.42734309 44.2363125 22.5078125 46.44140625 C22.84322052 47.11031387 23.17862854 47.7792215 23.52420044 48.46839905 C25.4963215 52.51735755 26.23510258 55.41061545 27 60 C-21.84 60 -70.68 60 -121 60 C-121 59.34 -121 58.68 -121 58 C-120.35039307 57.69296143 -119.70078613 57.38592285 -119.03149414 57.06958008 C-116.04035356 55.65364767 -113.05142399 54.23310512 -110.0625 52.8125 C-109.04091797 52.32974609 -108.01933594 51.84699219 -106.96679688 51.34960938 C-101.4867229 48.74088406 -96.1281021 46.04209615 -90.89257812 42.96875 C-88.32794646 41.65599736 -85.85536143 41.21964319 -83 41 C-83 40.34 -83 39.68 -83 39 C-82.30777344 38.731875 -81.61554688 38.46375 -80.90234375 38.1875 C-74.31126268 35.54759401 -68.07587496 32.53878472 -61.84912109 29.15429688 C-57.29516371 26.68099714 -52.70316573 24.30644884 -48.0625 22 C-47.39822998 21.6695166 -46.73395996 21.3390332 -46.04956055 20.99853516 C-43.3715712 19.66844876 -40.69165933 18.34226266 -38.01171875 17.01611328 C-36.02772744 16.03341147 -34.04478469 15.04863965 -32.0625 14.0625 C-31.41385986 13.74015381 -30.76521973 13.41780762 -30.09692383 13.08569336 C-24.19612992 10.13493328 -18.37513759 7.03817753 -12.58227539 3.88110352 C-8.21856331 1.53149292 -4.95451601 0 0 0 Z " fill="#BEDB8E" transform="translate(263,139)"/>
<path d="M0 0 C3.19891383 3.78420406 5.10894562 8.10845491 7.1875 12.5625 C7.55552734 13.33013672 7.92355469 14.09777344 8.30273438 14.88867188 C8.65013672 15.62794922 8.99753906 16.36722656 9.35546875 17.12890625 C9.67153076 17.79994385 9.98759277 18.47098145 10.31323242 19.16235352 C11 21 11 21 11 24 C-37.84 24 -86.68 24 -137 24 C-137 23.34 -137 22.68 -137 22 C-133.54466686 20.32705993 -130.08526007 18.66272237 -126.625 17 C-125.64015625 16.52304688 -124.6553125 16.04609375 -123.640625 15.5546875 C-122.22910156 14.87792969 -122.22910156 14.87792969 -120.7890625 14.1875 C-119.91975098 13.76855469 -119.05043945 13.34960938 -118.15478516 12.91796875 C-116 12 -116 12 -114 12 C-114 12.66 -114 13.32 -114 14 C-74.73 14 -35.46 14 5 14 C5 13.01 5 12.02 5 11 C4.34 11 3.68 11 3 11 C2.67 9.02 2.34 7.04 2 5 C1.01 4.67 0.02 4.34 -1 4 C-0.67 2.68 -0.34 1.36 0 0 Z " fill="#ADCB62" transform="translate(279,175)"/>
<path d="M0 0 C0.268125 0.639375 0.53625 1.27875 0.8125 1.9375 C1.88667752 4.33131686 1.88667752 4.33131686 5 5 C6.72795352 5.06802967 8.45835365 5.08495645 10.1875 5.0625 C11.08855469 5.05347656 11.98960937 5.04445312 12.91796875 5.03515625 C13.94857422 5.01775391 13.94857422 5.01775391 15 5 C15.83679277 7.62394306 16.66956942 10.24904384 17.5 12.875 C17.73847656 13.62136719 17.97695313 14.36773437 18.22265625 15.13671875 C20 20.7734375 20 20.7734375 20 23 C20.66 23 21.32 23 22 23 C22.66 25.31 23.32 27.62 24 30 C24.66 30 25.32 30 26 30 C26.495 31.98 26.495 31.98 27 34 C21.94637979 34.12371396 16.89364298 34.21439046 11.83886719 34.2746582 C10.11996099 34.29978367 8.40116144 34.33389047 6.68261719 34.37719727 C4.21001886 34.43794029 1.73883394 34.46622762 -0.734375 34.48828125 C-1.50118591 34.51408768 -2.26799683 34.5398941 -3.05804443 34.56648254 C-6.90203802 34.56849755 -8.59004747 34.39961583 -11.39160156 31.66870117 C-11.92237305 30.78802979 -12.45314453 29.9073584 -13 29 C-13.66 27.948125 -14.32 26.89625 -15 25.8125 C-18.27505359 19.89669174 -20.82544348 13.66768448 -22 7 C-19.81725275 6.02494057 -17.6331478 5.05345146 -15.4453125 4.08984375 C-13.97340055 3.43383188 -12.50752179 2.76365002 -11.0546875 2.06640625 C-7.20563838 0.26270386 -4.23781574 -0.31008408 0 0 Z " fill="#C7DFBC" transform="translate(325,165)"/>
<path d="M0 0 C3.7122551 3.33151098 5.08814833 5.18021262 6 10 C7.9001177 11.24174796 7.9001177 11.24174796 10 12 C12 14 12 14 12.125 16.625 C12.08375 17.40875 12.0425 18.1925 12 19 C13.65 19 15.3 19 17 19 C16.43539062 19.28101563 15.87078125 19.56203125 15.2890625 19.8515625 C13.77964164 20.60884873 12.27429202 21.37431253 10.7734375 22.1484375 C5.69008454 24.74806752 0.58434434 27.03213369 -4.7421875 29.0859375 C-7.22691426 30.05089653 -7.22691426 30.05089653 -10.375 31.75 C-13 33 -13 33 -17 33 C-19.66666667 27.66666667 -22.33333333 22.33333333 -25 17 C-25.37012207 16.32163086 -25.74024414 15.64326172 -26.12158203 14.94433594 C-27 13 -27 13 -27 10 C-19.45299109 5.44744946 -13.23843162 2.30000678 -4.36328125 1.2890625 C-1.98500157 1.1322148 -1.98500157 1.1322148 0 0 Z " fill="#C8E0C9" transform="translate(309,119)"/>
<path d="M0 0 C5.63274431 -0.62329548 9.79996041 -0.6886319 14.5 2.75 C17.90040983 5.50934896 19.6862292 7.9984726 20.37109375 12.3671875 C20.48778907 16.77415201 20.56332413 19.98317892 17.6875 23.5 C12.68348214 28.15490034 9.5913151 28.4868903 2.95703125 28.390625 C-1.50062226 27.8017672 -3.05549478 26.33194012 -6 23 C-9.1105459 18.33418115 -8.60457901 13.46332985 -8 8 C-6.19221352 4.70724605 -5.25312226 3.45251637 -1.75 2.1875 C-1.1725 2.125625 -0.595 2.06375 0 2 C0 1.34 0 0.68 0 0 Z " fill="#282C24" transform="translate(280,295)"/>
<path d="M0 0 C8.32815972 -0.09967212 16.62122059 -0.06280585 24.9375 0.4375 C25.97487305 0.49635376 25.97487305 0.49635376 27.03320312 0.55639648 C31.87524153 0.87524153 31.87524153 0.87524153 33 2 C35.42282417 2.1351823 37.82125563 2.21046394 40.24609375 2.24609375 C41.73763616 2.27902865 43.22917247 2.31224035 44.72070312 2.34570312 C47.08207036 2.3931715 49.44341225 2.43759816 51.80493164 2.47680664 C54.07724997 2.51643872 56.34905574 2.56800177 58.62109375 2.62109375 C59.32946884 2.6295079 60.03784393 2.63792206 60.76768494 2.64659119 C65.77332648 2.77332648 65.77332648 2.77332648 68 5 C68 5.99 68 6.98 68 8 C37.97 8 7.94 8 -23 8 C-23.33 7.34 -23.66 6.68 -24 6 C-14.1 6 -4.2 6 6 6 C6 5.01 6 4.02 6 3 C4.35 3 2.7 3 1 3 C0.67 2.01 0.34 1.02 0 0 Z " fill="#ACCF5B" transform="translate(218,189)"/>
<path d="M0 0 C30.36 0 60.72 0 92 0 C92 17.49 92 34.98 92 53 C61.64 53 31.28 53 0 53 C0 35.51 0 18.02 0 0 Z M81.25854492 1.09179688 C79.88089714 1.121828 79.88089714 1.121828 78.47541809 1.15246582 C77.48708481 1.1743396 76.49875153 1.19621338 75.48046875 1.21875 C31.90949952 2.14893027 31.90949952 2.14893027 11.87963867 1.96289062 C10.69990479 1.95451172 9.5201709 1.94613281 8.3046875 1.9375 C6.7885083 1.92009766 6.7885083 1.92009766 5.24169922 1.90234375 C3.02895843 1.74582093 3.02895843 1.74582093 2 3 C1.90680551 4.5348297 1.882542 6.07392082 1.88647461 7.61157227 C1.88659546 8.6062854 1.88671631 9.60099854 1.88684082 10.62585449 C1.89195679 11.67873657 1.89707275 12.73161865 1.90234375 13.81640625 C1.90335083 14.77865112 1.90435791 15.740896 1.90539551 16.7322998 C1.9106454 20.34237858 1.92460652 23.95244043 1.9375 27.5625 C1.958125 35.626875 1.97875 43.69125 2 52 C31.37 52 60.74 52 91 52 C91 35.17 91 18.34 91 1 C87.74722262 1 84.50889195 1.01947355 81.25854492 1.09179688 Z " fill="#A8B88A" transform="translate(245,284)"/>
<path d="M0 0 C12.21 0 24.42 0 37 0 C37.66 1.98 38.32 3.96 39 6 C39.66 6 40.32 6 41 6 C41.495 7.98 41.495 7.98 42 10 C36.94637979 10.12371396 31.89364298 10.21439046 26.83886719 10.2746582 C25.11996099 10.29978367 23.40116144 10.33389047 21.68261719 10.37719727 C19.21001886 10.43794029 16.73883394 10.46622762 14.265625 10.48828125 C13.49881409 10.51408768 12.73200317 10.5398941 11.94195557 10.56648254 C8.18064866 10.56845421 6.4102883 10.38050931 3.60839844 7.78198242 C2 5 2 5 0 0 Z " fill="#ABC86C" transform="translate(310,189)"/>
<path d="M0 0 C3.19891383 3.78420406 5.10894562 8.10845491 7.1875 12.5625 C7.55552734 13.33013672 7.92355469 14.09777344 8.30273438 14.88867188 C8.65013672 15.62794922 8.99753906 16.36722656 9.35546875 17.12890625 C9.67153076 17.79994385 9.98759277 18.47098145 10.31323242 19.16235352 C11 21 11 21 11 24 C-37.84 24 -86.68 24 -137 24 C-137 23.34 -137 22.68 -137 22 C-135.68 21.67 -134.36 21.34 -133 21 C-133 21.33 -133 21.66 -133 22 C-87.13 22 -41.26 22 6 22 C5.67 20.68 5.34 19.36 5 18 C3.50835327 17.96241577 3.50835327 17.96241577 1.98657227 17.92407227 C-1.69048747 17.83015118 -5.3673515 17.72989381 -9.04418945 17.62768555 C-10.637893 17.58427854 -12.2316448 17.54260781 -13.82543945 17.50268555 C-16.11163908 17.44512193 -18.39759449 17.38138851 -20.68359375 17.31640625 C-21.40026718 17.29969376 -22.11694061 17.28298126 -22.85533142 17.26576233 C-27.88612829 17.11387171 -27.88612829 17.11387171 -29 16 C-31.69235776 15.76321284 -34.36498156 15.57801975 -37.0625 15.4375 C-37.82111328 15.39431641 -38.57972656 15.35113281 -39.36132812 15.30664062 C-41.24065438 15.20026367 -43.12030244 15.09960066 -45 15 C-45 14.67 -45 14.34 -45 14 C-28.5 14 -12 14 5 14 C5 13.01 5 12.02 5 11 C4.34 11 3.68 11 3 11 C2.67 9.02 2.34 7.04 2 5 C1.01 4.67 0.02 4.34 -1 4 C-0.67 2.68 -0.34 1.36 0 0 Z " fill="#A1BC6A" transform="translate(279,175)"/>
<path d="M0 0 C1.98 0 3.96 0 6 0 C6 17.16 6 34.32 6 52 C4.02 52 2.04 52 0 52 C0 34.84 0 17.68 0 0 Z " fill="#C0D08E" transform="translate(358,284)"/>
<path d="M0 0 C0.66 0.33 1.32 0.66 2 1 C-1.75 6.75 -1.75 6.75 -4 9 C-4.30047015 12.17982883 -4.30047015 12.17982883 -4.24050903 15.99807739 C-4.24221788 16.72665856 -4.24392673 17.45523973 -4.24568737 18.20589912 C-4.24899496 20.65966272 -4.2379579 23.11315591 -4.22705078 25.56689453 C-4.22648694 27.32086175 -4.2268027 29.07482944 -4.22793579 30.82879639 C-4.22851137 35.60129407 -4.21672403 40.37369192 -4.20278788 45.14616632 C-4.19031454 50.12965551 -4.18911271 55.11314679 -4.18673706 60.09664917 C-4.18051228 69.5385016 -4.16408799 78.98030791 -4.14403808 88.42214 C-4.12171008 99.16925477 -4.11069346 109.91637171 -4.10064721 120.66350389 C-4.07972261 142.77569503 -4.04452729 164.88784462 -4 187 C-6.32777108 183.32169468 -6.25385671 180.16132591 -6.26069641 175.87098694 C-6.26452196 175.15239185 -6.26834751 174.43379677 -6.27228898 173.69342607 C-6.2826089 171.28520771 -6.2786288 168.87722822 -6.2746582 166.46899414 C-6.27900523 164.74254638 -6.28418835 163.01610055 -6.29014587 161.28965759 C-6.30354793 156.59960397 -6.30411322 151.90963086 -6.30158257 147.21956182 C-6.30051371 143.30543379 -6.30539405 139.39132211 -6.310188 135.47719759 C-6.3212873 126.24398194 -6.32171817 117.01080698 -6.31567383 107.77758789 C-6.30963228 98.24928979 -6.32194868 88.7211393 -6.3432439 79.19286638 C-6.36085087 71.01442175 -6.3668627 62.83602414 -6.36360615 54.65756124 C-6.36179175 49.77195724 -6.36444513 44.88645852 -6.37832069 40.00087166 C-6.39087975 35.40684276 -6.38897319 30.81304423 -6.37590981 26.21901894 C-6.3735403 24.53276746 -6.37629209 22.84649988 -6.38453293 21.16026688 C-6.39497067 18.85857503 -6.38692427 16.55766044 -6.3742218 14.2559967 C-6.37447341 12.32387628 -6.37447341 12.32387628 -6.37473011 10.35272312 C-5.96935921 6.7258558 -5.20488236 4.87715308 -3 2 C-2.01 1.34 -1.02 0.68 0 0 Z " fill="#5E5E5E" transform="translate(91,198)"/>
<path d="M0 0 C0 0.66 0 1.32 0 2 C6.24394665 2.91207535 12.33319855 3.16761413 18.63867188 3.20532227 C20.19124191 3.22017166 20.19124191 3.22017166 21.775177 3.23532104 C25.17301195 3.26673553 28.57086084 3.29161369 31.96875 3.31640625 C34.33386586 3.33699312 36.69897818 3.35799003 39.06408691 3.37937927 C45.27165859 3.43442102 51.47926248 3.48390886 57.68688965 3.53222656 C64.0282679 3.58257268 70.3695997 3.63819015 76.7109375 3.69335938 C89.14058526 3.80072189 101.57027346 3.90221503 114 4 C114 4.33 114 4.66 114 5 C74.73 5 35.46 5 -5 5 C-4.67 3.68 -4.34 2.36 -4 1 C-2 0 -2 0 0 0 Z " fill="#BBDA81" transform="translate(170,184)"/>
<path d="M0 0 C1.65 0 3.3 0 5 0 C5 17.16 5 34.32 5 52 C4.01 52 3.02 52 2 52 C2.0721875 51.071875 2.144375 50.14375 2.21875 49.1875 C3.31372695 33.47526393 3.09419184 17.74018082 3 2 C2.34 2 1.68 2 1 2 C1 5.3 1 8.6 1 12 C0.67 12 0.34 12 0 12 C0 8.04 0 4.08 0 0 Z " fill="#C9D79A" transform="translate(359,284)"/>
<path d="M0 0 C0.90443848 -0.00137466 1.80887695 -0.00274933 2.74072266 -0.00416565 C3.73046585 -0.00057037 4.72020905 0.0030249 5.73994446 0.00672913 C6.78401459 0.0065831 7.82808472 0.00643707 8.90379333 0.00628662 C12.36132369 0.00698434 15.81880044 0.01477021 19.27632141 0.02259827 C21.67099986 0.02446295 24.0656787 0.02588661 26.46035767 0.02688599 C32.76832632 0.03070723 39.076272 0.0405342 45.38423157 0.05158997 C51.81896148 0.0618125 58.2536951 0.06638542 64.68843079 0.07142639 C77.31799788 0.08215679 89.94754905 0.09903678 102.57710266 0.12025452 C102.57710266 0.45025452 102.57710266 0.78025452 102.57710266 1.12025452 C100.59846222 1.1323848 100.59846222 1.1323848 98.57984924 1.14476013 C86.16058148 1.22217854 73.74142385 1.309907 61.32229996 1.4077816 C54.93720429 1.4577695 48.55212538 1.50409944 42.16694641 1.54212952 C36.00717969 1.57895063 29.84755224 1.62530215 23.68790436 1.67831802 C21.33555794 1.69687882 18.98318166 1.71198051 16.63079071 1.72359848 C13.3409391 1.74043188 10.05140764 1.76946038 6.76167297 1.80140686 C5.2964772 1.80464714 5.2964772 1.80464714 3.80168152 1.80795288 C2.90428253 1.81911636 2.00688354 1.83027985 1.08229065 1.84178162 C0.30429737 1.84731237 -0.47369591 1.85284313 -1.27526474 1.85854149 C-3.68481512 2.15217213 -5.32791668 2.92234506 -7.42289734 4.12025452 C-7.42289734 3.13025452 -7.42289734 2.14025452 -7.42289734 1.12025452 C-4.60634006 0.18140209 -2.91229341 -0.00341418 0 0 Z " fill="#D6D4D3" transform="translate(234.4228973388672,260.87974548339844)"/>
<path d="M0 0 C10.89 0 21.78 0 33 0 C33.66 1.98 34.32 3.96 35 6 C35.66 6 36.32 6 37 6 C37 6.99 37 7.98 37 9 C32.38 9 27.76 9 23 9 C23 8.67 23 8.34 23 8 C27.455 7.505 27.455 7.505 32 7 C32.33 5.68 32.66 4.36 33 3 C26.22075306 1.81537388 19.43053054 1.66605966 12.5625 1.4375 C11.35400391 1.39431641 10.14550781 1.35113281 8.90039062 1.30664062 C5.93369394 1.20110596 2.96692098 1.09899286 0 1 C0 0.67 0 0.34 0 0 Z " fill="#BAD38B" transform="translate(314,189)"/>
<path d="M0 0 C5.56467094 7.11041286 8.56316159 13.97200623 9 23 C8.01 22.67 7.02 22.34 6 22 C5.67 20.02 5.34 18.04 5 16 C1.7 15.67 -1.6 15.34 -5 15 C-5 14.67 -5 14.34 -5 14 C-1.7 14 1.6 14 5 14 C5 13.01 5 12.02 5 11 C4.34 11 3.68 11 3 11 C2.67 9.02 2.34 7.04 2 5 C1.01 4.67 0.02 4.34 -1 4 C-0.67 2.68 -0.34 1.36 0 0 Z " fill="#ADC773" transform="translate(279,175)"/>
<path d="M0 0 C0.66 0 1.32 0 2 0 C1.34 1.32 0.68 2.64 0 4 C-7.59 4 -15.18 4 -23 4 C-22.67 3.34 -22.34 2.68 -22 2 C-21.36908447 1.97494385 -20.73816895 1.9498877 -20.08813477 1.92407227 C-17.24603175 1.80845863 -14.40428917 1.68557684 -11.5625 1.5625 C-10.56927734 1.52318359 -9.57605469 1.48386719 -8.55273438 1.44335938 C-7.60849609 1.40146484 -6.66425781 1.35957031 -5.69140625 1.31640625 C-4.81685791 1.27974854 -3.94230957 1.24309082 -3.04125977 1.20532227 C-1.0072598 1.21818934 -1.0072598 1.21818934 0 0 Z " fill="#5D5C5D" transform="translate(381,355)"/>
<path d="M0 0 C7.26 0 14.52 0 22 0 C21.01 1.485 21.01 1.485 20 3 C17.52848458 3.26015952 15.55871544 3.15572707 13.1640625 2.48828125 C10.63457264 1.91754798 8.34044329 1.90341522 5.75 1.9375 C4.41195312 1.95103516 4.41195312 1.95103516 3.046875 1.96484375 C2.37140625 1.97644531 1.6959375 1.98804688 1 2 C0.67 1.34 0.34 0.68 0 0 Z " fill="#B0D06B" transform="translate(173,189)"/>
<path d="M0 0 C0 0.66 0 1.32 0 2 C5.94 2.66 11.88 3.32 18 4 C18 4.33 18 4.66 18 5 C10.41 5 2.82 5 -5 5 C-4.67 3.68 -4.34 2.36 -4 1 C-2 0 -2 0 0 0 Z " fill="#B4CF7F" transform="translate(170,184)"/>
<path d="M0 0 C2.31 0 4.62 0 7 0 C4.35016767 3.14194405 1.18951512 4.53819794 -2.5 6.25 C-3.6446875 6.79140625 -4.789375 7.3328125 -5.96875 7.890625 C-9 9 -9 9 -12 8 C-9.35261084 6.5393715 -8.10551666 6 -5 6 C-4.67 5.01 -4.34 4.02 -4 3 C-1.9375 2.3125 -1.9375 2.3125 0 2 C0 1.34 0 0.68 0 0 Z " fill="#2D371A" transform="translate(224,153)"/>
<path d="M0 0 C0.66 0.33 1.32 0.66 2 1 C1.34 2.32 0.68 3.64 0 5 C-1.32 5 -2.64 5 -4 5 C-4.99 6.485 -4.99 6.485 -6 8 C-8.30252483 9.06902939 -10.6372026 10.07175817 -13 11 C-13.99 11.495 -13.99 11.495 -15 12 C-15.33 11.01 -15.66 10.02 -16 9 C-14.39318359 8.15115234 -14.39318359 8.15115234 -12.75390625 7.28515625 C-11.3567202 6.54436633 -9.95958753 5.80347571 -8.5625 5.0625 C-7.85544922 4.68931641 -7.14839844 4.31613281 -6.41992188 3.93164062 C-2.99521342 2.27507665 -2.99521342 2.27507665 0 0 Z " fill="#A4B784" transform="translate(208,164)"/>
<path d="M0 0 C5.94 0.66 11.88 1.32 18 2 C18 2.33 18 2.66 18 3 C13.71 3 9.42 3 5 3 C5 4.65 5 6.3 5 8 C1.99530649 5.40503742 1.63141204 4.0785301 0 0 Z " fill="#A5BD75" transform="translate(310,189)"/>
<path d="M0 0 C4.13879683 1.37959894 4.93040547 3.20574336 7 7 C7.59180941 9.70194952 7.80873841 12.22670701 8 15 C4.80553958 13.40276979 4.16730037 10.10023512 2.875 6.9375 C2.59785156 6.27427734 2.32070313 5.61105469 2.03515625 4.92773438 C1.35079847 3.28763557 0.6746225 1.64412717 0 0 Z " fill="#2D3A1C" transform="translate(283,182)"/>
<path d="M0 0 C-3.28804981 2.91227269 -5.59885603 4.49701212 -10 5 C-10 3.68 -10 2.36 -10 1 C-6.78548731 -0.60725635 -3.56387464 -0.05748185 0 0 Z " fill="#2B381A" transform="translate(168,184)"/>
<path d="M0 0 C0.66 0 1.32 0 2 0 C0.93940067 3.181798 -0.47551369 6.0173094 -2 9 C-3.32 9 -4.64 9 -6 9 C-6 6 -6 6 -3.5625 3.375 C-2.716875 2.59125 -1.87125 1.8075 -1 1 C-0.67 0.67 -0.34 0.34 0 0 Z " fill="#B0C097" transform="translate(299,315)"/>
<path d="M0 0 C0.99 0.33 1.98 0.66 3 1 C2.34 1 1.68 1 1 1 C0.67 1.99 0.34 2.98 0 4 C-1.75 6.25 -1.75 6.25 -4 8 C-6.75 7.75 -6.75 7.75 -9 7 C-6.36797295 4.0755255 -3.39162974 1.97845068 0 0 Z " fill="#616161" transform="translate(155,165)"/>
<path d="M0 0 C0.66 0.33 1.32 0.66 2 1 C0.68 1.33 -0.64 1.66 -2 2 C-2 2.99 -2 3.98 -2 5 C-4.375 6.0625 -4.375 6.0625 -7 7 C-7.66 6.67 -8.32 6.34 -9 6 C-9.33 6.66 -9.66 7.32 -10 8 C-10.66 7.34 -11.32 6.68 -12 6 C-5.25 3 -5.25 3 -3 3 C-3 2.34 -3 1.68 -3 1 C-2.01 0.67 -1.02 0.34 0 0 Z " fill="#A6B784" transform="translate(183,177)"/>
<path d="M0 0 C-5.625 5 -5.625 5 -9 5 C-8.875 3.125 -8.875 3.125 -8 1 C-2.71910112 -1.35955056 -2.71910112 -1.35955056 0 0 Z " fill="#B2BEAA" transform="translate(312,170)"/>
<path d="M0 0 C0.66 0 1.32 0 2 0 C2.75 2.25 2.75 2.25 3 5 C1.0625 7.3125 1.0625 7.3125 -1 9 C-1 5.72724974 -0.70074844 3.153368 0 0 Z " fill="#292E30" transform="translate(272,149)"/>
<path d="M0 0 C2.52394612 3.12488567 4.39701907 6.31314387 6 10 C5.67 10.66 5.34 11.32 5 12 C3.5 10.75 3.5 10.75 2 9 C2 7.68 2 6.36 2 5 C1.01 4.67 0.02 4.34 -1 4 C-0.67 2.68 -0.34 1.36 0 0 Z " fill="#ABBC8A" transform="translate(279,175)"/>
<path d="M0 0 C2 2 2 2 2 5 C3.32 5.33 4.64 5.66 6 6 C4.3125 6.8125 4.3125 6.8125 2 7 C-0.75 4.5625 -0.75 4.5625 -3 2 C-2.01 1.34 -1.02 0.68 0 0 Z " fill="#3C4739" transform="translate(328,164)"/>
<path d="M0 0 C-4.625 4 -4.625 4 -8 4 C-8 3.01 -8 2.02 -8 1 C-4.93251126 -0.86240388 -3.40254489 -1.2151946 0 0 Z " fill="#273014" transform="translate(284,297)"/>
<path d="M0 0 C0.66 0.33 1.32 0.66 2 1 C-1.625 6.75 -1.625 6.75 -5 9 C-4.5206753 4.68607774 -3.2542015 2.83430453 0 0 Z " fill="#515151" transform="translate(91,198)"/>
<path d="M0 0 C1.32 0.33 2.64 0.66 4 1 C4.66 3.97 5.32 6.94 6 10 C5.34 9.67 4.68 9.34 4 9 C4 8.01 4 7.02 4 6 C3.34 6 2.68 6 2 6 C1.34 4.02 0.68 2.04 0 0 Z " fill="#EAF4D3" transform="translate(347,189)"/>
<path d="M0 0 C0.66 0 1.32 0 2 0 C2 0.66 2 1.32 2 2 C2.99 1.67 3.98 1.34 5 1 C5 1.66 5 2.32 5 3 C6.65 2.67 8.3 2.34 10 2 C6.93882432 4.62386487 6.26826873 5 2 5 C1.34 3.35 0.68 1.7 0 0 Z " fill="#B6C4B4" transform="translate(290,147)"/>
<path d="M0 0 C0.99 1.32 1.98 2.64 3 4 C-1.29 3.67 -5.58 3.34 -10 3 C-10 2.67 -10 2.34 -10 2 C-6.7 1.34 -3.4 0.68 0 0 Z " fill="#C4D2C5" transform="translate(309,119)"/>
<path d="M0 0 C-3.22791555 2.1519437 -4.28400809 2.20086443 -8 2 C-8 2.66 -8 3.32 -8 4 C-9.32 3.67 -10.64 3.34 -12 3 C-10.75823305 2.29773859 -9.50614401 1.61370891 -8.25 0.9375 C-7.20585937 0.36322266 -7.20585937 0.36322266 -6.140625 -0.22265625 C-3.63859372 -1.1312406 -2.4667645 -0.88336837 0 0 Z " fill="#6C6C6C" transform="translate(281,106)"/>
<path d="M0 0 C1.65 0 3.3 0 5 0 C4.67 0.99 4.34 1.98 4 3 C0.9375 4.1875 0.9375 4.1875 -2 5 C-2 4.34 -2 3.68 -2 3 C-1.34 3 -0.68 3 0 3 C0 2.01 0 1.02 0 0 Z " fill="#2E3B16" transform="translate(194,168)"/>
<path d="M0 0 C0.66 0.33 1.32 0.66 2 1 C-0.36292656 3.52588702 -1.66462511 4.88820837 -5 6 C-5.66 5.34 -6.32 4.68 -7 4 C-1.7265625 0.77734375 -1.7265625 0.77734375 0 0 Z " fill="#9CAC80" transform="translate(243,147)"/>
<path d="M0 0 C-0.99 1.485 -0.99 1.485 -2 3 C-5.625 3.1875 -5.625 3.1875 -9 3 C-8.01 2.67 -7.02 2.34 -6 2 C-6 1.34 -6 0.68 -6 0 C-2.25 -1.125 -2.25 -1.125 0 0 Z " fill="#C2D7A0" transform="translate(176,184)"/>
</svg>
